# xmcd
#
# Track frame offsets:
#	150
#	11744
#	21566
#	34322
#	43476
#	58008
#	70912
#	87003
#	98258
#	112069
#	123818
#	141626
#	153461
#	167022
#	180699
#	190766
#
# Disc length: 2702 seconds
#
# Revision: 1
# Processed by: cddbd v1.5.2PL0 Copyright (c) Steve Scherf et al.
# Submitted via: audiograbber 1.83.01
#
DISCID=e00a8c10
DTITLE=sampler - Golden Age Of Country
DYEAR=1900
DGENRE=
TTITLE0=A Dear John Letter  Ferlin Husky &Jean Shepard
TTITLE1=Heartbreak Hotel  Elvis Presley
TTITLE2=It Keeps Right On A Hurtin  Johnny Tillotson
TTITLE3=Wake Up Little Susie  The Every Brother
TTITLE4=Kaw-Liga  Churley Pride
TTITLE5=The Carroll Country Accident  Porter Wagoner
TTITLE6=My Elusive Dreams  Tammy Wynette&David Houston
TTITLE7=Last Date  Floyd Cramer
TTITLE8=Funny How Time Slips Away  Willie Nelson
TTITLE9=We Must Have Been Out Of Our Minds  George&Melba Montgomery
TTITLE10=Giddyup Go  Red sovine
TTITLE11=What Make Milwaukee Famous  Jerry Lee Lewis
TTITLE12=This Ole House  Stuart Hamble
TTITLE13=City Lights  Ray Price
TTITLE14=You Ain't Woman Enough To Take My Man  Loretta Lynn
TTITLE15=Lonesome 7-7203  Hawkshaw hawkins
EXTD=
EXTT0=
EXTT1=
EXTT2=
EXTT3=
EXTT4=
EXTT5=
EXTT6=
EXTT7=
EXTT8=
EXTT9=
EXTT10=
EXTT11=
EXTT12=
EXTT13=
EXTT14=
EXTT15=
PLAYORDER=
